<?xml version="1.0" encoding="UTF-8" standalone="no"?>
<svg
   xmlns:osb="http://www.openswatchbook.org/uri/2009/osb"
   xmlns:dc="http://purl.org/dc/elements/1.1/"
   xmlns:cc="http://creativecommons.org/ns#"
   xmlns:rdf="http://www.w3.org/1999/02/22-rdf-syntax-ns#"
   xmlns:svg="http://www.w3.org/2000/svg"
   xmlns="http://www.w3.org/2000/svg"
   xmlns:xlink="http://www.w3.org/1999/xlink"
   xmlns:sodipodi="http://sodipodi.sourceforge.net/DTD/sodipodi-0.dtd"
   xmlns:inkscape="http://www.inkscape.org/namespaces/inkscape"
   version="1.1"
   x="0px"
   y="0px"
   viewBox="0 0 100.00017 93.876816"
   enable-background="new 0 0 100 100"
   xml:space="preserve"
   id="svg34"
   sodipodi:docname="noun_loading_23526.svg"
   width="100.00017"
   height="93.876816"
   inkscape:version="0.92.3 (2405546, 2018-03-11)"><metadata
     id="metadata40"><rdf:RDF><cc:Work
         rdf:about=""><dc:format>image/svg+xml</dc:format><dc:type
           rdf:resource="http://purl.org/dc/dcmitype/StillImage" /><dc:title></dc:title></cc:Work></rdf:RDF></metadata><defs
     id="defs38"><linearGradient
       id="linearGradient2341"
       osb:paint="solid"><stop
         style="stop-color:#ffff00;stop-opacity:1;"
         offset="0"
         id="stop2339" /></linearGradient><linearGradient
       inkscape:collect="always"
       xlink:href="#linearGradient2341"
       id="linearGradient2343"
       x1="69.907741"
       y1="10.314106"
       x2="72.892198"
       y2="10.314106"
       gradientUnits="userSpaceOnUse" /></defs><sodipodi:namedview
     pagecolor="#ffffff"
     bordercolor="#666666"
     borderopacity="1"
     objecttolerance="10"
     gridtolerance="10"
     guidetolerance="10"
     inkscape:pageopacity="0"
     inkscape:pageshadow="2"
     inkscape:window-width="1920"
     inkscape:window-height="984"
     id="namedview36"
     showgrid="false"
     fit-margin-top="0"
     fit-margin-left="0"
     fit-margin-right="0"
     fit-margin-bottom="0"
     inkscape:pagecheckerboard="true"
     inkscape:zoom="7.552"
     inkscape:cx="51.222801"
     inkscape:cy="46.987043"
     inkscape:window-x="1366"
     inkscape:window-y="27"
     inkscape:window-maximized="1"
     inkscape:current-layer="svg34" /><g
     id="g28"
     transform="translate(-9.6891049e-5,-3.061)"><g
       id="g26"><g
         id="g24"><path
           d="m 99.991,47.9 -0.003,0.088 C 99.756,53.874 94.8,58.461 88.909,58.23 83.308,58.013 78.887,53.47 78.668,47.964 l -0.006,-0.086 c -0.219,-5.891 4.378,-10.843 10.27,-11.063 5.893,-0.218 10.842,4.379 11.061,10.271 0.01,0.265 0.01,0.554 -0.002,0.814 z"
           id="path2"
           inkscape:connector-curvature="0" /><path
           d="m 90.161,76.838 -0.048,0.067 c -3.168,4.302 -9.215,5.22 -13.518,2.055 -4.072,-2.998 -5.092,-8.623 -2.496,-12.858 l 0.045,-0.067 c 2.807,-4.546 8.76,-5.954 13.305,-3.154 4.546,2.806 5.957,8.763 3.15,13.308 -0.131,0.215 -0.286,0.445 -0.438,0.649 z"
           id="path4"
           inkscape:connector-curvature="0" /><path
           d="m 66.318,94.998 -0.076,0.027 C 61.743,96.644 56.781,94.306 55.163,89.808 53.63,85.545 55.68,80.855 59.721,79 l 0.075,-0.037 c 4.353,-1.98 9.49,-0.063 11.474,4.293 1.986,4.354 0.065,9.49 -4.289,11.477 -0.213,0.095 -0.447,0.186 -0.663,0.265 z"
           id="path6"
           inkscape:connector-curvature="0" /><path
           d="m 36.984,96.71 -0.083,-0.021 c -4.1,-1.021 -6.598,-5.178 -5.576,-9.276 0.97,-3.894 4.794,-6.339 8.687,-5.699 l 0.083,0.013 c 4.172,0.699 6.988,4.642 6.293,8.814 -0.697,4.168 -4.643,6.988 -8.814,6.291 -0.194,-0.031 -0.402,-0.077 -0.59,-0.122 z"
           id="path8"
           inkscape:connector-curvature="0" /><path
           d="m 12.201,82.046 -0.055,-0.063 c -2.456,-2.729 -2.233,-6.931 0.5,-9.391 2.586,-2.326 6.516,-2.228 9.008,0.107 l 0.06,0.057 c 2.672,2.52 2.794,6.73 0.273,9.405 -2.521,2.672 -6.731,2.797 -9.405,0.276 -0.129,-0.123 -0.264,-0.263 -0.381,-0.391 z"
           id="path10"
           inkscape:connector-curvature="0" /><path
           d="M 0.067,56.58 0.056,56.495 c -0.435,-3.086 1.716,-5.938 4.803,-6.373 2.924,-0.413 5.646,1.521 6.292,4.347 l 0.019,0.079 C 11.854,57.592 9.944,60.611 6.899,61.301 3.858,61.985 0.835,60.073 0.15,57.03 0.117,56.883 0.088,56.725 0.067,56.58 Z"
           id="path12"
           inkscape:connector-curvature="0" /><path
           d="m 4.139,29.247 0.039,-0.074 c 1.115,-2.307 3.891,-3.271 6.197,-2.154 2.188,1.059 3.159,3.627 2.302,5.854 l -0.03,0.077 C 11.717,35.34 9.03,36.524 6.64,35.598 4.25,34.67 3.064,31.981 3.991,29.591 4.036,29.476 4.088,29.357 4.139,29.247 Z"
           id="path14"
           inkscape:connector-curvature="0" /><path
           d="m 22.376,9.3 0.069,-0.04 c 1.731,-1.013 3.958,-0.429 4.97,1.303 0.96,1.64 0.476,3.732 -1.051,4.808 l -0.067,0.046 c -1.643,1.153 -3.912,0.755 -5.063,-0.89 -1.153,-1.644 -0.754,-3.913 0.89,-5.065 0.08,-0.055 0.168,-0.112 0.252,-0.162 z"
           id="path16"
           inkscape:connector-curvature="0" /><path
           d="m 48.082,3.066 0.086,0.005 c 1.45,0.086 2.553,1.333 2.467,2.781 -0.083,1.377 -1.226,2.444 -2.583,2.47 L 47.966,8.323 C 46.513,8.347 45.316,7.188 45.292,5.736 45.268,4.282 46.427,3.085 47.88,3.061 c 0.066,10e-4 0.137,0.002 0.202,0.005 z"
           id="path18"
           inkscape:connector-curvature="0" /><path
           d="m 72.35,12.042 0.063,0.049 c 0.712,0.547 0.845,1.566 0.298,2.277 -0.519,0.673 -1.465,0.825 -2.171,0.374 l -0.064,-0.045 c -0.757,-0.489 -0.973,-1.495 -0.484,-2.25 0.488,-0.754 1.496,-0.971 2.25,-0.48 0.033,0.022 0.072,0.05 0.108,0.075 z"
           id="path20"
           inkscape:connector-curvature="0" /><path
           d="m 87.127,32.569 0.025,0.078 c 0.106,0.323 -0.068,0.674 -0.389,0.782 -0.307,0.104 -0.642,-0.051 -0.766,-0.343 l -0.031,-0.072 c -0.136,-0.316 0.01,-0.68 0.326,-0.817 0.313,-0.136 0.68,0.01 0.813,0.326 0.01,0.015 0.016,0.03 0.022,0.046 z"
           id="path22"
           inkscape:connector-curvature="0" /></g></g></g><path
     style="fill:#ff0000;fill-opacity:1;stroke-width:0.13241525"
     d="m 86.061145,29.986965 c -0.137922,-0.371035 -0.05717,-0.596084 0.278292,-0.77562 0.491457,-0.26302 1.009151,0.514505 0.609,0.914656 -0.267912,0.267912 -0.764973,0.190024 -0.887292,-0.139036 z"
     id="path847"
     inkscape:connector-curvature="0" /><path
     style="fill:#ff0000;fill-opacity:1;stroke-width:0.13241525"
     d="m 47.325064,5.1093197 c -2.67756,-0.6258547 -2.477937,-4.67418676 0.245622,-4.98117123 1.244656,-0.14029086 2.178523,0.35104909 2.733009,1.43793263 0.950616,1.863361 -0.87494,4.0349568 -2.978631,3.5432386 z"
     id="path849"
     inkscape:connector-curvature="0" /><path
     style="fill:#ff0000;fill-opacity:1;stroke-width:0.13241525"
     d="M 7.2257758,32.665027 C 6.0221031,32.361379 4.7599936,31.343702 4.2304454,30.249802 3.0949547,27.904191 4.1227527,25.068733 6.501626,23.984138 c 1.1589721,-0.528407 2.6009207,-0.537917 3.708188,-0.02446 1.666093,0.772601 2.648461,2.32379 2.664023,4.206573 0.007,0.846471 -0.05292,1.123162 -0.405796,1.873841 -0.770672,1.639482 -2.125099,2.592607 -3.830523,2.69558 -0.5022205,0.03032 -1.1375045,-0.0015 -1.4117422,-0.07065 z"
     id="path851"
     inkscape:connector-curvature="0" /><path
     style="fill:#0000ff;fill-opacity:1;stroke-width:0.13241525"
     d="m 37.312256,93.65454 c -3.572465,-0.746094 -6.084159,-3.802325 -6.084159,-7.403211 0,-2.261852 0.633771,-3.781494 2.245327,-5.383802 1.63281,-1.623439 3.50254,-2.345525 5.718482,-2.208467 6.59587,0.407962 9.620813,8.224754 4.978691,12.865498 -1.841491,1.840944 -4.415131,2.640235 -6.858341,2.129982 z"
     id="path853"
     inkscape:connector-curvature="0" /><path
     style="fill:#008000;fill-opacity:1;stroke-width:0.13241525"
     d="m 88.299072,55.023284 c -3.710091,-0.294936 -7.136336,-2.778636 -8.694993,-6.303036 -0.636436,-1.439094 -0.874164,-2.830275 -0.808335,-4.730369 0.05128,-1.480125 0.115931,-1.88341 0.461267,-2.87729 1.013254,-2.916147 3.22683,-5.324003 5.928325,-6.448638 4.976313,-2.071644 10.760774,-0.09446 13.387772,4.576072 2.687352,4.777842 1.216541,11.021811 -3.297932,14.000527 -2.270978,1.498424 -4.235936,2.000567 -6.976104,1.782734 z"
     id="path855"
     inkscape:connector-curvature="0" /><path
     style="fill:#008000;fill-opacity:1;stroke-width:0.13241525"
     d="m 15.649162,80.944353 c -1.900776,-0.461059 -3.547294,-1.802435 -4.450939,-3.626068 l -0.560698,-1.131534 0.0026,-1.665173 c 0.0031,-1.962511 0.226954,-2.690598 1.235388,-4.018412 2.365146,-3.114209 6.845795,-3.457824 9.743448,-0.747212 1.406019,1.315261 2.05925,2.867494 2.057058,4.888056 -0.0045,4.13599 -4.004908,7.275932 -8.026902,6.300343 z"
     id="path857"
     inkscape:connector-curvature="0" /><path
     style="fill:#008000;fill-opacity:1;stroke-width:0.13241525"
     d="M 70.580564,11.610954 C 70.334201,11.460751 70.051466,11.127529 69.934955,10.850062 69.754666,10.420709 69.751391,10.287971 69.909815,9.8310595 70.3224,8.6411485 71.659971,8.3610947 72.508469,9.2869667 73.738433,10.629089 72.1368,12.559768 70.58056,11.610954 Z"
     id="path859"
     inkscape:connector-curvature="0" /><path
     style="fill:#008000;fill-opacity:1;stroke-width:0.13241525"
     d="M 22.599572,12.50534 C 20.86394,11.609439 20.149719,9.5039609 21.009651,7.8183552 21.369712,7.112577 22.306228,6.2769101 23.059523,5.989224 c 1.223931,-0.4674235 2.828788,-0.091785 3.758275,0.8796761 1.343063,1.4037115 1.276754,3.9016589 -0.135219,5.0939259 -1.262853,1.06635 -2.6986,1.25712 -4.083007,0.542514 z"
     id="path861"
     inkscape:connector-curvature="0" /><path
     style="fill:#ffff00;fill-opacity:1;stroke-width:0.13241525"
     d="m 4.6483437,58.21736 c -1.36044,-0.268507 -2.7748525,-1.183756 -3.5349988,-2.287455 -1.59069805,-2.309622 -1.26300123,-5.475237 0.7589693,-7.33179 1.2372994,-1.136076 2.4303836,-1.559856 4.1390416,-1.470174 1.266472,0.06647 2.3895371,0.53605 3.3804164,1.413424 1.4380818,1.273349 2.1430918,3.514993 1.7040708,5.418245 -0.490905,2.128175 -2.3989154,3.911856 -4.5631905,4.265843 -0.9013657,0.147427 -1.1006782,0.146571 -1.8843088,-0.0081 z"
     id="path863"
     inkscape:connector-curvature="0" /><path
     style="fill:#ffff00;fill-opacity:1;stroke-width:0.13241525"
     d="m 80.287949,77.493606 c -4.76242,-1.04841 -8.02327,-5.589803 -7.47917,-10.416256 0.472124,-4.187991 3.667532,-7.662751 7.78226,-8.462608 1.201207,-0.233501 3.571072,-0.09426 4.661587,0.273897 2.552646,0.861765 4.515266,2.543511 5.637974,4.831112 1.252129,2.55131 1.419015,4.948324 0.523749,7.522664 -1.336184,3.842195 -5.066155,6.468507 -9.140171,6.435691 -0.655455,-0.0053 -1.549258,-0.0883 -1.986229,-0.1845 z"
     id="path865"
     inkscape:connector-curvature="0" /><path
     style="fill:#ff0000;fill-opacity:1;stroke-width:0.13241525"
     d="M 61.182484,92.120354 C 59.624677,91.71221 58.449751,91.02347 57.246466,89.813062 55.546524,88.10306 54.757548,86.211804 54.757548,83.84687 c 0,-3.342218 1.828323,-6.252396 4.873622,-7.757438 3.306719,-1.634242 7.172143,-0.981891 9.809549,1.655516 1.693237,1.693235 2.496748,3.63567 2.496748,6.035714 0,2.452907 -0.757288,4.273494 -2.513129,6.041791 -1.699704,1.711762 -3.758824,2.567293 -6.151749,2.555953 -0.665363,-0.0032 -1.519891,-0.108656 -2.090105,-0.258052 z"
     id="path867"
     inkscape:connector-curvature="0" /><path
     style="fill:#0000ff;fill-opacity:1;stroke-width:0.13241525"
     d="M 23.38954,12.758234 C 21.660673,12.278818 20.422849,10.468273 20.716439,8.8483324 20.909525,7.782943 21.750153,6.7036779 22.819729,6.1479613 24.157021,5.4531482 26.221936,6.0026995 27.081007,7.2820471 27.560729,7.9964602 27.850066,9.161909 27.724338,9.8733808 27.35806,11.946084 25.32942,13.296165 23.38954,12.758234 Z"
     id="path869"
     inkscape:connector-curvature="0" /><path
     style="fill:url(#linearGradient2343);fill-opacity:1;stroke-width:0.13241525"
     d="m 70.996757,11.732509 c -1.082036,-0.309726 -1.442804,-1.576205 -0.692442,-2.4308196 0.352475,-0.4014467 0.493158,-0.4680609 0.988507,-0.4680609 1.131958,0 1.9401,1.165979 1.456421,2.1013115 -0.358118,0.692523 -1.038194,1.002031 -1.752486,0.797569 z"
     id="path871"
     inkscape:connector-curvature="0" /></svg>