<svg xmlns:dc="http://purl.org/dc/elements/1.1/" xmlns:cc="http://creativecommons.org/ns#" xmlns:rdf="http://www.w3.org/1999/02/22-rdf-syntax-ns#" xmlns:svg="http://www.w3.org/2000/svg" xmlns="http://www.w3.org/2000/svg" xmlns:sodipodi="http://sodipodi.sourceforge.net/DTD/sodipodi-0.dtd" xmlns:inkscape="http://www.inkscape.org/namespaces/inkscape" viewBox="0 0 24 30" version="1.1" x="0px" y="0px"><g transform="translate(0,-1028.3622)"><path style="" d="M 5.0722656 0 C 2.2623755 0 0 2.2623755 0 5.0722656 L 0 18.927734 C 0 21.737625 2.2623755 24 5.0722656 24 L 18.927734 24 C 21.737625 24 24 21.737625 24 18.927734 L 24 5.0722656 C 24 2.2623755 21.737625 0 18.927734 0 L 5.0722656 0 z M 12.353516 5.0078125 C 14.090408 5.0975125 15.754589 5.8456469 17 7.1230469 L 17 6.5058594 C 16.995904 6.2440594 17.230387 5.9980469 17.492188 5.9980469 C 17.759197 5.9938469 18.0042 6.2388594 18 6.5058594 L 18 8.5058594 C 17.999974 8.7676594 17.761792 9.0058594 17.5 9.0058594 L 15.5 9.0058594 C 15.235844 9.0095594 14.992188 8.7700594 14.992188 8.5058594 C 14.992188 8.2416594 15.235844 8.0058594 15.5 8.0058594 L 16.474609 8.0058594 C 14.71692 6.0312594 11.83341 5.4124031 9.3867188 6.5957031 C 6.6598124 7.9146031 5.346992 11.046316 6.3164062 13.916016 C 7.2857924 16.785816 10.2292 18.4799 13.197266 17.875 C 16.16532 17.2701 18.213437 14.559262 17.982422 11.539062 C 17.958222 11.275263 18.179162 11.014141 18.443359 10.994141 C 18.707555 10.974541 18.965379 11.200344 18.980469 11.464844 C 19.249335 14.979944 16.85279 18.153422 13.398438 18.857422 C 9.9440694 19.561422 6.4973554 17.578181 5.3691406 14.238281 C 4.2408931 10.898281 5.7794302 7.2322656 8.953125 5.6972656 C 9.7465496 5.3135656 10.580692 5.0924375 11.416016 5.0234375 C 11.729262 4.9974375 12.042169 4.9937656 12.353516 5.0097656 L 12.353516 5.0078125 z M 12 10.5 C 12.822505 10.5 13.5 11.1775 13.5 12 C 13.5 12.8225 12.822505 13.5 12 13.5 C 11.177495 13.5 10.5 12.8225 10.5 12 C 10.5 11.1775 11.177495 10.5 12 10.5 z " transform="translate(0,1028.3622)" fill="#000000" fill-opacity="1" stroke="none"/></g><text x="0" y="39" fill="#000000" font-size="5px" font-weight="bold" font-family="'Helvetica Neue', Helvetica, Arial-Unicode, Arial, Sans-serif">Created by Chameleon Design</text><text x="0" y="44" fill="#000000" font-size="5px" font-weight="bold" font-family="'Helvetica Neue', Helvetica, Arial-Unicode, Arial, Sans-serif">from the Noun Project</text></svg>