<?xml version="1.0" encoding="UTF-8" standalone="no"?>
<svg
   xmlns:dc="http://purl.org/dc/elements/1.1/"
   xmlns:cc="http://creativecommons.org/ns#"
   xmlns:rdf="http://www.w3.org/1999/02/22-rdf-syntax-ns#"
   xmlns:svg="http://www.w3.org/2000/svg"
   xmlns="http://www.w3.org/2000/svg"
   xmlns:sodipodi="http://sodipodi.sourceforge.net/DTD/sodipodi-0.dtd"
   xmlns:inkscape="http://www.inkscape.org/namespaces/inkscape"
   version="1.1"
   x="0px"
   y="0px"
   viewBox="0 0 86 86"
   xml:space="preserve"
   id="svg10"
   sodipodi:docname="ok.svg"
   width="86"
   height="86"
   inkscape:version="0.92.3 (2405546, 2018-03-11)"><metadata
     id="metadata16"><rdf:RDF><cc:Work
         rdf:about=""><dc:format>image/svg+xml</dc:format><dc:type
           rdf:resource="http://purl.org/dc/dcmitype/StillImage" /><dc:title></dc:title></cc:Work></rdf:RDF></metadata><defs
     id="defs14" /><sodipodi:namedview
     pagecolor="#ffffff"
     bordercolor="#666666"
     borderopacity="1"
     objecttolerance="10"
     gridtolerance="10"
     guidetolerance="10"
     inkscape:pageopacity="0"
     inkscape:pageshadow="2"
     inkscape:window-width="1920"
     inkscape:window-height="984"
     id="namedview12"
     showgrid="false"
     inkscape:pagecheckerboard="true"
     fit-margin-top="0"
     fit-margin-left="0"
     fit-margin-right="0"
     fit-margin-bottom="0"
     inkscape:zoom="1.888"
     inkscape:cx="42"
     inkscape:cy="30.5"
     inkscape:window-x="1366"
     inkscape:window-y="27"
     inkscape:window-maximized="1"
     inkscape:current-layer="svg10" /><g
     id="g4"
     transform="translate(-8,-7)"><path
       d="M 86,7 H 16 c -4.4,0 -8,3.6 -8,8 v 70 c 0,4.4 3.6,8 8,8 h 70 c 4.4,0 8,-3.6 8,-8 V 15 C 94,10.6 90.4,7 86,7 Z M 69.9,42.9 48.6,64.1 c -0.8,0.8 -1.8,1.2 -2.8,1.2 -1,0 -2,-0.4 -2.8,-1.2 L 32.1,53.3 c -1.6,-1.6 -1.6,-4.1 0,-5.7 1.6,-1.6 4.1,-1.6 5.7,0 l 8,8 18.4,-18.4 c 1.6,-1.6 4.1,-1.6 5.7,0 1.5,1.6 1.5,4.1 0,5.7 z"
       id="path2"
       inkscape:connector-curvature="0" /></g><path
     style="fill:#ffffff;stroke-width:0.529661"
     d="m 29.924961,51.719995 c -6.302398,-6.224771 -7.191255,-7.546044 -6.513334,-9.681984 0.404292,-1.273808 3.096376,-2.63041 4.494387,-2.264822 0.497261,0.130037 2.899911,2.242652 5.339222,4.694701 l 4.43511,4.45827 9.845139,-9.795707 c 8.550709,-8.507776 10.062244,-9.795707 11.496384,-9.795707 1.85011,0 3.846775,2.016258 3.846775,3.884523 0,0.71752 -4.045703,5.153682 -11.769379,12.905266 -10.006781,10.04294 -12.002329,11.811906 -13.324857,11.811906 -1.274999,0 -2.690391,-1.120934 -7.849447,-6.216446 z"
     id="path18"
     inkscape:connector-curvature="0" /></svg>