<?xml version="1.0" encoding="UTF-8" standalone="no"?>
<svg
   xmlns:dc="http://purl.org/dc/elements/1.1/"
   xmlns:cc="http://creativecommons.org/ns#"
   xmlns:rdf="http://www.w3.org/1999/02/22-rdf-syntax-ns#"
   xmlns:svg="http://www.w3.org/2000/svg"
   xmlns="http://www.w3.org/2000/svg"
   xmlns:sodipodi="http://sodipodi.sourceforge.net/DTD/sodipodi-0.dtd"
   xmlns:inkscape="http://www.inkscape.org/namespaces/inkscape"
   version="1.1"
   x="0px"
   y="0px"
   viewBox="0 0 90 90"
   id="svg10"
   sodipodi:docname="retry.svg"
   width="90"
   height="90"
   inkscape:version="0.92.3 (2405546, 2018-03-11)">
  <metadata
     id="metadata16">
    <rdf:RDF>
      <cc:Work
         rdf:about="">
        <dc:format>image/svg+xml</dc:format>
        <dc:type
           rdf:resource="http://purl.org/dc/dcmitype/StillImage" />
        <dc:title></dc:title>
      </cc:Work>
    </rdf:RDF>
  </metadata>
  <defs
     id="defs14" />
  <sodipodi:namedview
     pagecolor="#ffffff"
     bordercolor="#666666"
     borderopacity="1"
     objecttolerance="10"
     gridtolerance="10"
     guidetolerance="10"
     inkscape:pageopacity="0"
     inkscape:pageshadow="2"
     inkscape:window-width="1920"
     inkscape:window-height="984"
     id="namedview12"
     showgrid="false"
     inkscape:pagecheckerboard="true"
     fit-margin-top="0"
     fit-margin-left="0"
     fit-margin-right="0"
     fit-margin-bottom="0"
     inkscape:showpageshadow="false"
     inkscape:zoom="1.888"
     inkscape:cx="72.012708"
     inkscape:cy="30.38136"
     inkscape:window-x="1366"
     inkscape:window-y="27"
     inkscape:window-maximized="1"
     inkscape:current-layer="layer1"
     inkscape:object-nodes="false" />
  <g
     transform="matrix(1.0058851,0,0,1,-5.0294256,-957.36218)"
     id="g4">
    <path
       style="fill:#000000;fill-opacity:1;stroke-width:0"
       d="M 25,5 C 13.92,5 5,13.92 5,25 v 50 c 0,11.08 8.92,20 20,20 H 75 C 86.08,95 95,86.08 95,75 V 25 C 95,13.92 86.08,5 75,5 Z m 24.388672,15.103516 c 6.22606,0.10027 12.287302,2.527091 16.890625,6.925781 1.950491,-1.92381 3.905228,-3.841863 5.855469,-5.751953 0.449112,-0.43985 1.047431,-0.694391 1.675781,-0.712891 1.408779,-0.0417 2.573596,1.088647 2.574219,2.498047 v 15 c -1.38e-4,1.38065 -1.119345,2.49986 -2.5,2.5 h -15 c -2.198272,6e-5 -3.326641,-2.632799 -1.810547,-4.224609 1.734516,-1.82042 3.493032,-3.609036 5.259765,-5.384766 -5.302816,-4.99886 -13.016992,-6.66224 -19.992187,-4.125 -7.676553,2.79236 -12.771266,10.046796 -12.785156,18.197266 -0.0079,3.702987 -5.561713,3.69326 -5.556641,-0.0098 0.01784,-10.46691 6.594743,-19.828426 16.441406,-23.410156 2.461666,-0.89544 4.999906,-1.381465 7.527344,-1.484375 0.473895,-0.0196 0.947318,-0.02558 1.419922,-0.01758 z m 23.949219,32.197265 c 1.565621,-0.04239 2.856839,1.217011 2.853515,2.783203 -0.01784,10.4669 -6.594742,19.828457 -16.441406,23.410157 -2.461666,0.8954 -4.999906,1.381475 -7.527344,1.484375 -0.473895,0.018 -0.947318,0.02758 -1.419922,0.01758 -6.22606,-0.1002 -12.287302,-2.527181 -16.890625,-6.925782 -1.950491,1.923801 -3.905227,3.841854 -5.855468,5.751954 -0.449112,0.4399 -1.047432,0.69389 -1.675782,0.71289 -1.408779,0.0417 -2.573595,-1.088647 -2.574218,-2.498047 v -15 c 1.38e-4,-1.3806 1.119345,-2.4998 2.5,-2.5 h 15 c 2.198272,0 3.326641,2.63271 1.810547,4.22461 -1.734516,1.8204 -3.493033,3.609065 -5.259766,5.384765 5.302816,4.9989 13.016992,6.6623 19.992187,4.125 7.676553,-2.7923 12.771267,-10.046865 12.785157,-18.197265 0.0021,-1.503634 1.20004,-2.732741 2.703125,-2.773438 z"
       transform="translate(0,952.36218)"
       id="path2"
       inkscape:connector-curvature="0" />
  </g>
  <g
     inkscape:groupmode="layer"
     id="layer1"
     inkscape:label="Layer 1">
    <path
       style="fill:#ffffff;stroke-width:0.529661"
       d="m 19.691895,41.133773 c -0.45624,-1.001339 -0.440965,-2.231584 0.0627,-5.049935 2.252529,-12.604381 13.23483,-21.276091 25.957702,-20.496401 5.399459,0.330893 9.300117,1.717118 13.25534,4.710714 l 2.807017,2.124552 3.25298,-3.224066 c 3.42183,-3.391414 5.148871,-4.012226 6.118978,-2.199563 0.308096,0.57568 0.548297,4.507167 0.548297,8.974203 0,10.083393 0.485577,9.598753 -9.617271,9.598753 -3.994606,0 -7.874305,-0.232448 -8.621553,-0.516552 -2.200288,-0.836547 -1.725329,-2.522977 1.686917,-5.989706 l 3.045551,-3.094179 -1.319098,-1.081669 C 52.780729,21.537142 46.162291,19.787825 41.097328,20.721199 32.125014,22.374624 25.692057,29.127445 24.62201,38.015714 c -0.244139,2.027928 -0.731104,3.6727 -1.16953,3.950204 -1.44441,0.914246 -3.135361,0.540071 -3.760585,-0.832145 z"
       id="path30"
       inkscape:connector-curvature="0" />
    <path
       style="fill:#ffffff;stroke-width:0.529661"
       d="m 40.709741,74.012662 c -3.615443,-0.90675 -5.889212,-1.96942 -8.954963,-4.185198 l -2.599031,-1.878455 -3.537718,3.144137 c -5.871068,5.217897 -6.359559,4.700039 -6.359559,-6.741887 0,-7.975154 0.07607,-8.655553 1.024502,-9.163136 0.574819,-0.307634 4.490994,-0.548297 8.922146,-0.548297 6.978445,0 7.99967,0.112737 8.774227,0.968613 0.482121,0.532737 0.876583,1.265474 0.876583,1.628304 0,0.36283 -1.368682,2.09461 -3.041515,3.848402 l -3.041515,3.188711 1.320117,1.086425 c 0.726064,0.597534 2.631027,1.707155 4.233252,2.465825 2.535369,1.200522 3.601428,1.379398 8.220883,1.379398 4.930031,0 5.559395,-0.123885 8.843941,-1.740862 5.882968,-2.896176 9.506155,-7.99138 10.613301,-14.925242 0.303946,-1.903558 0.784449,-3.758949 1.067784,-4.123091 0.65452,-0.841187 2.627662,-0.856301 3.457481,-0.02648 0.946043,0.946044 0.769375,5.196111 -0.367882,8.85013 C 66.32645,69.56288 53.06966,77.11252 40.709741,74.012662 Z"
       id="path32"
       inkscape:connector-curvature="0" />
  </g>
</svg>
