<?xml version="1.0" encoding="UTF-8" standalone="no"?>
<svg
   xmlns:dc="http://purl.org/dc/elements/1.1/"
   xmlns:cc="http://creativecommons.org/ns#"
   xmlns:rdf="http://www.w3.org/1999/02/22-rdf-syntax-ns#"
   xmlns:svg="http://www.w3.org/2000/svg"
   xmlns="http://www.w3.org/2000/svg"
   xmlns:sodipodi="http://sodipodi.sourceforge.net/DTD/sodipodi-0.dtd"
   xmlns:inkscape="http://www.inkscape.org/namespaces/inkscape"
   version="1.1"
   x="0px"
   y="0px"
   viewBox="0 0 88 88.000008"
   id="svg10"
   sodipodi:docname="take.svg"
   width="88"
   height="88.000008"
   inkscape:version="0.92.3 (2405546, 2018-03-11)">
  <metadata
     id="metadata16">
    <rdf:RDF>
      <cc:Work
         rdf:about="">
        <dc:format>image/svg+xml</dc:format>
        <dc:type
           rdf:resource="http://purl.org/dc/dcmitype/StillImage" />
        <dc:title></dc:title>
      </cc:Work>
    </rdf:RDF>
  </metadata>
  <defs
     id="defs14" />
  <sodipodi:namedview
     pagecolor="#ffffff"
     bordercolor="#666666"
     borderopacity="1"
     objecttolerance="10"
     gridtolerance="10"
     guidetolerance="10"
     inkscape:pageopacity="0"
     inkscape:pageshadow="2"
     inkscape:window-width="1920"
     inkscape:window-height="984"
     id="namedview12"
     showgrid="false"
     inkscape:pagecheckerboard="true"
     fit-margin-top="0"
     fit-margin-left="0"
     fit-margin-right="0"
     fit-margin-bottom="0"
     inkscape:zoom="1.888"
     inkscape:cx="44"
     inkscape:cy="31.50002"
     inkscape:window-x="1366"
     inkscape:window-y="27"
     inkscape:window-maximized="1"
     inkscape:current-layer="svg10" />
  <g
     transform="translate(-6,-958.36219)"
     id="g4">
    <path
       style="color:#000000;display:inline;overflow:visible;visibility:visible;fill:#000000;stroke:none;enable-background:accumulate"
       d="m 29,958.36219 c -12.74201,0 -23,10.258 -23,23 v 42.00001 c 0,12.742 10.25799,23 23,23 h 42 c 12.74201,0 23,-10.258 23,-23 v -42.00001 c 0,-12.742 -10.25799,-23 -23,-23 z m 5,8 h 32 c 11.04535,0 20,8.9547 20,20 v 32.00001 c 0,11.0453 -8.95465,20 -20,20 H 34 c -11.04535,0 -20,-8.9547 -20,-20 v -32.00001 c 0,-11.0453 8.95465,-20 20,-20 z m 0,4 c -8.89854,0 -16,7.1015 -16,16 v 32.00001 c 0,8.8985 7.10146,16 16,16 h 32 c 8.89854,0 16,-7.1015 16,-16 v -32.00001 c 0,-8.8985 -7.10146,-16 -16,-16 z m 36,6 c 2.2091,0 4,1.7908 4,4 0,2.2091 -1.7909,4 -4,4 -2.2092,0 -4,-1.7909 -4,-4 0,-2.2092 1.7908,-4 4,-4 z m -20,9 c 9.36519,0 17,7.6349 17,17.00001 0,9.3651 -7.63481,17 -17,17 -9.36519,0 -17,-7.6349 -17,-17 0,-9.36511 7.63481,-17.00001 17,-17.00001 z m 0,4 c -7.20341,0 -13,5.7967 -13,13.00001 0,7.2033 5.79659,13 13,13 7.20341,0 13,-5.7967 13,-13 0,-7.20331 -5.79659,-13.00001 -13,-13.00001 z"
       marker="none"
       visibility="visible"
       display="inline"
       overflow="visible"
       id="path2"
       inkscape:connector-curvature="0" />
  </g>
  <path
     style="fill:#ffffff;fill-opacity:1;stroke-width:0.529661"
     d="M 22.813559,79.108544 C 17.624963,77.474556 12.046985,72.72651 10.072736,68.26339 9.515389,67.003417 8.821926,64.329821 8.531706,62.322066 7.886396,57.85777 7.84358,30.890189 8.474042,26.00254 9.620946,17.111191 15.642165,10.520708 24.296198,8.684512 c 3.78331,-0.802735 35.624295,-0.802735 39.407605,0 8.654031,1.836196 14.675249,8.426679 15.822156,17.318028 0.63046,4.887649 0.587643,31.85523 -0.05767,36.319526 -0.290222,2.007755 -0.983681,4.681351 -1.541032,5.941324 -1.449593,3.27705 -5.585233,7.46124 -9.289418,9.398464 L 65.451266,79.32838 44.794487,79.42697 C 33.433258,79.48119 23.541838,79.3379 22.813554,79.108548 Z m 43.525249,-4.102669 c 3.500074,-1.61758 6.990037,-5.031235 8.453952,-8.2691 1.245339,-2.754423 1.251732,-2.871388 1.251732,-22.895683 V 23.713973 L 74.742685,21.088015 C 73.085969,17.746137 70.317781,14.977949 66.999423,13.344752 L 64.391949,12.061431 H 44 23.608051 l -2.603483,1.281389 c -3.207705,1.578778 -6.156311,4.55011 -7.802422,7.86256 -1.242316,2.499898 -1.246638,2.577443 -1.246638,22.370881 0,18.213432 0.08316,20.077897 1.001783,22.459529 1.826521,4.735476 6.622898,8.82635 11.522987,9.828056 1.268156,0.259248 10.6479,0.429777 20.843875,0.378962 17.777727,-0.0886 18.639719,-0.139343 21.014655,-1.236933 z"
     id="path823"
     inkscape:connector-curvature="0" />
  <path
     style="fill:#ffffff;fill-opacity:1;stroke-width:0.529661"
     d=""
     id="path825"
     inkscape:connector-curvature="0" />
  <path
     style="fill:#ffffff;fill-opacity:1;stroke-width:0.529661"
     d="m 61.478814,24.508465 c -2.179539,-2.179539 -0.37662,-6.355933 2.74381,-6.355933 1.30712,0 3.612122,2.305002 3.612122,3.612123 0,3.120429 -4.176394,4.923348 -6.355932,2.74381 z"
     id="path827"
     inkscape:connector-curvature="0" />
  <path
     style="fill:#ffffff;fill-opacity:1;stroke-width:0.529661"
     d="M 38.545909,59.792791 C 27.275318,55.596968 23.708258,41.820122 31.615397,33.02548 35.068546,29.184747 38.943945,27.435539 44,27.435539 c 3.278298,0 4.509661,0.259839 6.995964,1.476274 12.367481,6.050845 12.86354,23.223934 0.859565,29.757316 -2.301756,1.252773 -3.578987,1.560758 -7.054476,1.701081 -2.751588,0.111096 -4.951079,-0.09194 -6.255144,-0.577419 z M 50.15429,55.670179 c 6.267803,-3.130292 8.863922,-11.356988 5.592005,-17.720187 -4.825026,-9.383674 -18.667564,-9.383674 -23.49259,0 -2.616795,5.089122 -1.546239,11.487152 2.595663,15.512619 4.088977,3.974031 10.04714,4.833431 15.304922,2.207568 z"
     id="path829"
     inkscape:connector-curvature="0" />
</svg>
