<?xml version="1.0" encoding="UTF-8" standalone="no"?>
<svg
   xmlns:dc="http://purl.org/dc/elements/1.1/"
   xmlns:cc="http://creativecommons.org/ns#"
   xmlns:rdf="http://www.w3.org/1999/02/22-rdf-syntax-ns#"
   xmlns:svg="http://www.w3.org/2000/svg"
   xmlns="http://www.w3.org/2000/svg"
   xmlns:sodipodi="http://sodipodi.sourceforge.net/DTD/sodipodi-0.dtd"
   xmlns:inkscape="http://www.inkscape.org/namespaces/inkscape"
   version="1.1"
   x="0px"
   y="0px"
   viewBox="0 0 79.733002 80.282997"
   enable-background="new 0 0 90 90"
   xml:space="preserve"
   id="svg8"
   sodipodi:docname="upload.svg"
   width="79.733002"
   height="80.282997"
   inkscape:version="0.92.3 (2405546, 2018-03-11)"><metadata
     id="metadata14"><rdf:RDF><cc:Work
         rdf:about=""><dc:format>image/svg+xml</dc:format><dc:type
           rdf:resource="http://purl.org/dc/dcmitype/StillImage" /><dc:title></dc:title></cc:Work></rdf:RDF></metadata><defs
     id="defs12" /><sodipodi:namedview
     pagecolor="#ffffff"
     bordercolor="#666666"
     borderopacity="1"
     objecttolerance="10"
     gridtolerance="10"
     guidetolerance="10"
     inkscape:pageopacity="0"
     inkscape:pageshadow="2"
     inkscape:window-width="1920"
     inkscape:window-height="984"
     id="namedview10"
     showgrid="false"
     fit-margin-top="0"
     fit-margin-left="0"
     fit-margin-right="0"
     fit-margin-bottom="0"
     inkscape:pagecheckerboard="true"
     inkscape:zoom="2.0977778"
     inkscape:cx="39.8665"
     inkscape:cy="28.9165"
     inkscape:window-x="1366"
     inkscape:window-y="27"
     inkscape:window-maximized="1"
     inkscape:current-layer="svg8" /><path
     stroke-miterlimit="10"
     d="M 66.1535,0.36649999 H 13.5785 C 6.2825,0.36649999 0.36649999,6.2825 0.36649999,13.5785 v 53.125 c 0,7.297 5.91600001,13.213 13.21200001,13.213 h 52.575 c 7.297,0 13.213,-5.916 13.213,-13.213 v -53.125 c 0,-7.296 -5.916,-13.21200001 -13.213,-13.21200001 z M 40.0355,14.4735 l 8.724,17.066 h -4.332 v 29.453 h -8.785 v -29.453 h -4.391 z m 17.585,56.911 h -35.508 v -10.459 h 4.404 v 6.056 h 26.975 v -6.056 h 4.129 z"
     id="path2"
     inkscape:connector-curvature="0"
     style="stroke:#000000;stroke-width:0.73299998;stroke-miterlimit:10" /><path
     style="fill:#ffffff;fill-opacity:1;stroke-width:0.47669491"
     d="M 36.052941,45.693828 V 31.154633 h -1.909587 -1.909587 l 3.858629,-7.705913 3.858629,-7.705913 3.925005,7.586739 3.925006,7.586739 -2.060488,0.145293 -2.060489,0.145292 V 45.719946 60.233023 H 39.8665 36.052941 Z"
     id="path821"
     inkscape:connector-curvature="0" /><path
     style="fill:#ffffff;fill-opacity:1;stroke-width:0.47669491"
     d="m 22.705483,66.191709 v -4.528602 h 1.668432 1.668432 v 2.86017 2.860169 h 14.0625 14.0625 v -2.860169 -2.86017 h 1.430085 1.430085 v 4.528602 4.528602 H 39.8665 22.705483 Z"
     id="path823"
     inkscape:connector-curvature="0" /></svg>